<svg xmlns="http://www.w3.org/2000/svg" width="940" height="354" viewBox="0 0 940 354" role="img" aria-labelledby="title description">
<title id="title">Tasks by research area</title>
<desc id="description">Pie chart. Model training: 8; Algorithms and optimization: 6; Data engineering and curation: 6; Systems and efficiency: 4; Evaluation, calibration, and robustness: 3; AI safety and alignment: 1; Interpretability: 1. Total: 29 tasks.</desc>
<rect x="0.5" y="0.5" width="939" height="353" rx="12" fill="#ffffff" stroke="#e3e7eb"/>
<g font-family="Arial, Helvetica, sans-serif">
<text x="28" y="40" font-size="23" font-weight="700" fill="#263744">Tasks by research area</text>
<text x="903" y="40" text-anchor="end" font-size="16" fill="#647481">29 tasks</text>
<path d="M 184 201 L 184.00000 76.00000 A 125 125 0 0 1 307.35332 221.22275 Z" fill="#5B9690" stroke="#ffffff" stroke-width="2.5" stroke-linejoin="round"/>
<text x="245.926" y="153.900" text-anchor="middle" font-size="17" font-weight="700" fill="#22313d">8</text>
<path d="M 184 201 L 307.35332 221.22275 A 125 125 0 0 1 197.51488 325.26724 Z" fill="#82A6C2" stroke="#ffffff" stroke-width="2.5" stroke-linejoin="round"/>
<text x="239.876" y="265.487" text-anchor="middle" font-size="17" font-weight="700" fill="#22313d">6</text>
<path d="M 184 201 L 197.51488 325.26724 A 125 125 0 0 1 67.87791 247.26727 Z" fill="#A69BC4" stroke="#ffffff" stroke-width="2.5" stroke-linejoin="round"/>
<text x="142.111" y="276.120" text-anchor="middle" font-size="17" font-weight="700" fill="#22313d">6</text>
<path d="M 184 201 L 67.87791 247.26727 A 125 125 0 0 1 73.56099 142.44894 Z" fill="#D8BA84" stroke="#ffffff" stroke-width="2.5" stroke-linejoin="round"/>
<text x="102.869" y="202.101" text-anchor="middle" font-size="17" font-weight="700" fill="#22313d">4</text>
<path d="M 184 201 L 73.56099 142.44894 A 125 125 0 0 1 131.51386 87.55307 Z" fill="#D49683" stroke="#ffffff" stroke-width="2.5" stroke-linejoin="round"/>
<text x="128.124" y="147.513" text-anchor="middle" font-size="17" font-weight="700" fill="#22313d">3</text>
<path d="M 184 201 L 131.51386 87.55307 A 125 125 0 0 1 157.12869 78.92243 Z" fill="#A4BA94" stroke="#ffffff" stroke-width="2.5" stroke-linejoin="round"/>
<text x="153.666" y="116.473" text-anchor="middle" font-size="17" font-weight="700" fill="#22313d">1</text>
<path d="M 184 201 L 157.12869 78.92243 A 125 125 0 0 1 184.00000 76.00000 Z" fill="#C6A0B4" stroke="#ffffff" stroke-width="2.5" stroke-linejoin="round"/>
<text x="173.729" y="112.057" text-anchor="middle" font-size="17" font-weight="700" fill="#22313d">1</text>
<rect x="364" y="81" width="15" height="15" rx="3" fill="#5B9690"/>
<text x="394" y="94" font-size="17" fill="#344653">Model training</text>
<text x="900" y="94" text-anchor="end" font-size="17" font-weight="700" fill="#263744">8</text>
<rect x="364" y="117" width="15" height="15" rx="3" fill="#82A6C2"/>
<text x="394" y="130" font-size="17" fill="#344653">Algorithms and optimization</text>
<text x="900" y="130" text-anchor="end" font-size="17" font-weight="700" fill="#263744">6</text>
<rect x="364" y="153" width="15" height="15" rx="3" fill="#A69BC4"/>
<text x="394" y="166" font-size="17" fill="#344653">Data engineering and curation</text>
<text x="900" y="166" text-anchor="end" font-size="17" font-weight="700" fill="#263744">6</text>
<rect x="364" y="189" width="15" height="15" rx="3" fill="#D8BA84"/>
<text x="394" y="202" font-size="17" fill="#344653">Systems and efficiency</text>
<text x="900" y="202" text-anchor="end" font-size="17" font-weight="700" fill="#263744">4</text>
<rect x="364" y="225" width="15" height="15" rx="3" fill="#D49683"/>
<text x="394" y="238" font-size="17" fill="#344653">Evaluation, calibration, and robustness</text>
<text x="900" y="238" text-anchor="end" font-size="17" font-weight="700" fill="#263744">3</text>
<rect x="364" y="261" width="15" height="15" rx="3" fill="#A4BA94"/>
<text x="394" y="274" font-size="17" fill="#344653">AI safety and alignment</text>
<text x="900" y="274" text-anchor="end" font-size="17" font-weight="700" fill="#263744">1</text>
<rect x="364" y="297" width="15" height="15" rx="3" fill="#C6A0B4"/>
<text x="394" y="310" font-size="17" fill="#344653">Interpretability</text>
<text x="900" y="310" text-anchor="end" font-size="17" font-weight="700" fill="#263744">1</text>
</g>
</svg>
